#!OML:ASF X:\für Bonn\!DataBase\2005_08_11_Bastian_Final\c3d\Bastian.ASF
:FULLY-SPECIFIED
:DEGREES
324
root 22.6614 16.2139 -1.97237 362.144 -60.2733 30.8654
lowerback 72.7304 -5.89646 14.0673
upperback 13.0681 1.31938 -2.09562
thorax -5.34683 0.829824 -8.41787
lowerneck 0.958881 -10.2049 6.66008
upperneck -31.4298 -10.0005 16.4199
head -9.68288 -7.97208 5.65529
rclavicle -1.39944e-013 3.97569e-014
rhumerus 67.3745 -10.6453 -60.9892
rradius 15.0118
rwrist 16.5385
rhand -38.3791 -9.43479
rfingers 7.12502
rthumb -11.4049 -39.1046
lclavicle -1.39944e-013 3.97569e-014
lhumerus -15.0803 -30.0102 87.4286
lradius 46.1046
lwrist 32.5614
lhand -12.0921 -15.9253
lfingers 7.12502
lthumb 13.9682 13.5855
rfemur -69.3569 -17.792 13.3918
rtibia 68.3354
rfoot -20.3793 -8.67211
rtoes 0.107865
lfemur -62.3312 -9.42091 -37.3943
ltibia 44.8402
lfoot -0.542524 -16.5807
ltoes -10.3533
325
root 22.6599 16.2376 -1.97306 362.338 -60.3484 30.3746
lowerback 72.8624 -5.80572 13.9744
upperback 12.9829 1.37245 -2.07295
thorax -5.43925 0.83015 -8.37515
lowerneck 0.739395 -10.1925 6.49272
upperneck -31.3256 -10.0404 16.4659
head -9.58063 -7.96839 5.66872
rclavicle 1.90833e-014 1.01778e-013
rhumerus 66.696 -9.74757 -59.6661
rradius 15.3531
rwrist 15.0677
rhand -38.2144 -9.52691
rfingers 7.12502
rthumb -11.2461 -39.2055
lclavicle 1.90833e-014 1.01778e-013
lhumerus -15.1476 -29.9324 87.5331
lradius 45.9104
lwrist 32.4439
lhand -12.0946 -15.9453
lfingers 7.12502
lthumb 13.9659 13.5656
rfemur -68.8772 -17.6766 13.6045
rtibia 67.962
rfoot -20.3054 -8.66048
rtoes 0.138676
lfemur -61.9441 -9.19106 -37.2065
ltibia 44.5642
lfoot -0.495334 -16.665
ltoes -10.5483
326
root 22.6572 16.2642 -1.97327 362.458 -60.4407 29.9615
lowerback 72.9774 -5.68004 13.8204
upperback 12.9267 1.41171 -2.0508
thorax -5.50894 0.825789 -8.30524
lowerneck 0.422794 -10.1635 6.32323
upperneck -31.2231 -10.07 16.5148
head -9.46133 -7.9603 5.67586
rclavicle 1.27222e-014 -4.29375e-014
rhumerus 66.0807 -8.81489 -58.3877
rradius 15.7049
rwrist 13.6888
rhand -38.0287 -9.64727
rfingers 7.12502
rthumb -11.067 -39.3355
lclavicle 1.27222e-014 -4.29375e-014
lhumerus -15.1493 -29.8072 87.5814
lradius 45.7067
lwrist 32.2968
lhand -12.0926 -15.9758
lfingers 7.12502
lthumb 13.9678 13.535
rfemur -68.3819 -17.548 13.77
rtibia 67.5766
rfoot -20.1894 -8.64311
rtoes 0.161958
lfemur -61.5321 -8.97411 -37.025
ltibia 44.2648
lfoot -0.418544 -16.6921
ltoes -10.5221
327
root 22.6553 16.2892 -1.97317 362.614 -60.5337 29.4868
lowerback 73.1163 -5.56759 13.726
upperback 12.8113 1.48749 -2.04973
thorax -5.63375 0.83524 -8.29748
lowerneck 0.259593 -10.1617 6.27316
upperneck -31.1459 -10.1104 16.5192
head -9.39415 -7.96676 5.66585
rclavicle -8.90555e-014 3.97569e-014
rhumerus 65.3768 -7.93965 -57.3204
rradius 16.0777
rwrist 12.4422
rhand -37.8524 -9.74971
rfingers 7.12502
rthumb -10.8969 -39.447
lclavicle -8.90555e-014 3.97569e-014
lhumerus -15.2738 -29.8183 87.6604
lradius 45.521
lwrist 32.1468
lhand -12.0614 -15.9709
lfingers 7.12502
lthumb 13.9978 13.5378
rfemur -67.8667 -17.422 13.963
rtibia 67.1752
rfoot -20.0989 -8.619
rtoes 0.193959
lfemur -61.1034 -8.73559 -36.8281
ltibia 43.9646
lfoot -0.330142 -16.7564
ltoes -10.4104
